<?xml version="1.0" encoding="UTF-8" standalone="no"?>
<svg
   xmlns:dc="http://purl.org/dc/elements/1.1/"
   xmlns:cc="http://creativecommons.org/ns#"
   xmlns:rdf="http://www.w3.org/1999/02/22-rdf-syntax-ns#"
   xmlns:svg="http://www.w3.org/2000/svg"
   xmlns="http://www.w3.org/2000/svg"
   xmlns:sodipodi="http://sodipodi.sourceforge.net/DTD/sodipodi-0.dtd"
   xmlns:inkscape="http://www.inkscape.org/namespaces/inkscape"
   version="1.1"
   id="svg2"
   width="915.61017"
   height="399.45779"
   viewBox="0 0 915.61016 399.45781"
   sodipodi:docname="risset-title.svg"
   inkscape:version="1.0 (4035a4fb49, 2020-05-01)">
  <metadata
     id="metadata8">
    <rdf:RDF>
      <cc:Work
         rdf:about="">
        <dc:format>image/svg+xml</dc:format>
        <dc:type
           rdf:resource="http://purl.org/dc/dcmitype/StillImage" />
        <dc:title></dc:title>
      </cc:Work>
    </rdf:RDF>
  </metadata>
  <defs
     id="defs6" />
  <sodipodi:namedview
     inkscape:document-rotation="0"
     pagecolor="#ffffff"
     bordercolor="#666666"
     borderopacity="1"
     objecttolerance="10"
     gridtolerance="10"
     guidetolerance="10"
     inkscape:pageopacity="0"
     inkscape:pageshadow="2"
     inkscape:window-width="1920"
     inkscape:window-height="1060"
     id="namedview4"
     showgrid="false"
     fit-margin-top="0"
     fit-margin-left="0"
     fit-margin-right="0"
     fit-margin-bottom="0"
     inkscape:zoom="0.29362807"
     inkscape:cx="176.11884"
     inkscape:cy="409.79616"
     inkscape:window-x="0"
     inkscape:window-y="20"
     inkscape:window-maximized="1"
     inkscape:current-layer="g10" />
  <g
     inkscape:groupmode="layer"
     inkscape:label="Image"
     id="g10"
     transform="translate(-61.784491,-71.052446)">
    <g
       id="g44"
       transform="matrix(0.37968966,0,0,0.37968966,263.8528,16.754366)">
      <path
         style="fill:#cdcdcd"
         d="m 204.50523,1152.6246 c -2.52996,-1.3452 -67.05948,-38.5428 -143.39894,-82.6613 -76.33945,-44.1185 -239.59901,-138.45832 -362.79901,-209.64407 -123.2,-71.18575 -224.84961,-130.17567 -225.88802,-131.08871 -4.77111,-4.19511 -4.61198,0.98595 -4.61198,-150.16008 0,-151.14604 -0.15778,-146.01007 4.61198,-150.13131 5.90316,-5.10053 247.21256,-143.19578 250.97231,-143.62508 4.87374,-0.5565 3.50636,-1.22251 35.74065,17.40815 13.65372,7.89153 25.39408,14.34824 26.08969,14.34824 0.6956,0 41.04938,-23.00944 89.67505,-51.1321 78.56617,-45.43873 88.96705,-51.18034 93.41032,-51.56543 4.91764,-0.4262 5.45871,-0.16871 32.84828,15.63209 15.31655,8.83599 28.21956,16.06544 28.67335,16.06544 0.45378,0 40.98766,-23.175 90.07529,-51.5 95.71715,-55.23162 92.70428,-53.72265 99.86831,-50.01798 3.71556,1.92138 177.22711,102.88691 182.68111,106.30129 7.9284,4.96332 7.8143,4.36552 8.1623,42.75582 l 0.3086,34.03914 58.5969,33.96086 c 51.1116,29.62264 58.8325,34.40597 60.4414,37.44527 1.7802,3.3629 1.8445,13.40832 1.8445,288.10212 v 284.61771 l -2.2848,3.39049 c -2.1081,3.12815 -284.87707,164.52714 -309.18703,176.47794 -8.30221,4.0813 -9.82293,4.1756 -15.83026,0.9815 z m 67.43208,-467.30416 c 31.81828,-18.0125 57.85231,-32.975 57.85341,-33.25 0,-0.48915 -46.24186,-28.84217 -52.51949,-32.20078 l -3.17895,-1.70079 -30.3925,17.48773 c -18.59881,10.70168 -31.16859,17.34992 -32.3925,17.13259 -1.1,-0.19532 -42.14958,-24.06195 -91.22128,-53.03694 -49.07171,-28.975 -89.51932,-52.68181 -89.88358,-52.68181 -1.55448,0 -54.42149,32.42096 -54.15765,33.21246 0.32948,0.98846 235.77716,137.78482 237.15181,137.78647 0.48911,5.9e-4 26.92244,-14.73643 58.74073,-32.74893 z m -305.76587,-75.75 0.64724,-28 -55.7557,-31.93093 c -30.66564,-17.56201 -71.38409,-40.89783 -90.48546,-51.85737 l -34.72976,-19.92645 -26.01429,16.35738 c -14.30787,8.99655 -26.12947,16.73636 -26.27024,17.19958 -0.28152,0.92634 -2.029,-0.0986 134.74405,79.02953 l 96,55.53944 0.60846,-4.20559 c 0.33465,-2.31307 0.89971,-16.80559 1.2557,-32.20559 z m 396.69558,-47.64385 c 14.8172,-8.32911 26.9403,-15.47021 26.9403,-15.8691 0,-1.06591 -52.9486,-31.98705 -54.7738,-31.98705 -1.5457,0 -52.85648,29.5927 -53.71256,30.97787 -0.34176,0.55297 52.81736,31.88052 54.29606,31.99761 0.1704,0.0135 12.4329,-6.79021 27.25,-15.11933 z m -640.97121,8.89385 c 0.0487,-1.7875 0.6112,-15.37523 1.25,-30.19495 0.77393,-17.95446 0.82781,-27.25012 0.16147,-27.85956 -0.55,-0.50303 -27.775,-16.97687 -60.5,-36.60853 -50.64859,-30.38399 -59.5,-36.03089 -59.5,-37.95899 0,-1.95525 12.0363,-9.1438 88,-52.55705 48.4,-27.6606 87.88591,-50.69226 87.74647,-51.18146 -0.33432,-1.17292 -52.19829,-31.38946 -53.87718,-31.38946 -1.66673,0 -234.68553,134.43606 -235.06136,135.61448 -0.24535,0.7693 228.95697,135.04123 230.94207,135.29111 0.4125,0.0519 0.78984,-1.36809 0.83853,-3.15559 z M 453.17642,439.09162 c 31.147,-17.86335 56.6309,-32.77944 56.6309,-33.14688 0,-0.93669 -112.5358,-66.8743 -114.1345,-66.8743 -1.4466,0 -54.8634,30.20325 -54.8258,31 0.013,0.275 12.4968,7.94684 27.7419,17.04853 23.4442,13.99676 27.7184,16.90276 27.7184,18.84568 0,1.94961 -4.0543,4.66542 -26.7989,17.95146 -14.7394,8.60988 -26.8655,16.10433 -26.9469,16.65433 -0.1776,1.19981 51.2593,31.60372 52.8649,31.24796 0.6154,-0.13638 26.6029,-14.86343 57.75,-32.72678 z M -98.82326,334.38951 c 59.4718,-34.36549 111.38752,-64.35838 115.36828,-66.65088 3.98075,-2.29251 7.22763,-4.39319 7.21528,-4.66819 -0.0406,-0.90326 -53.61071,-32.00107 -55.04905,-31.95633 -0.77218,0.024 -41.35567,23.71921 -90.40397,52.28233 l -90.5,52.70238 c -0.088,10.5868 -4.14544,21.20153 -1.76678,31.74716 l 0.92066,32.57486 1.99513,0.46118 c 1.29675,0.29974 52.74866,-32.12703 112.22045,-66.49251 z m 222.13054,-58.35096 c 48.4,-27.65137 88.78069,-50.48182 89.73487,-50.73434 1.05328,-0.27874 25.28823,13.33577 61.68615,34.65356 32.9732,19.31197 60.40262,35.11267 60.95422,35.11267 1.1578,0 51.0063,-28.65267 52.8535,-30.37994 1.2007,-1.12267 -170.3877,-102.64044 -174.81661,-103.42773 -1.36249,-0.2422 -177.00907,99.96466 -180.23605,102.82516 -1.66042,1.47185 -0.45541,63.53658 1.21494,62.57604 0.33494,-0.19261 40.20898,-22.97405 88.60898,-50.62542 z"
         id="path58"
         sodipodi:nodetypes="ssssssssssssssssscssscsssscscsssssssscsscssscsssssssssssssssssssssssssssssssssscccsssssssssss" />
      <path
         style="fill:#b5b5b5"
         d="m 199.58269,1149.1601 c -4.79852,-2.7757 -169.27352,-97.8171 -365.5,-211.20301 -196.22648,-113.38596 -358.0197,-207.0311 -359.5405,-208.10031 -6.11502,-4.29921 -5.73491,5.71503 -5.73491,-151.0888 V 435.36621 l 2.25,-3.31526 c 1.7915,-2.63968 27.4164,-17.8628 125.75,-74.70497 l 123.5,-71.38972 5,0.41673 c 4.27831,0.35658 8.8971,2.67908 32,16.09076 14.85,8.62071 27.69887,15.49918 28.55304,15.28548 0.85416,-0.21369 41.53696,-23.47884 90.40621,-51.70033 77.82639,-44.94393 89.36123,-51.31154 92.94697,-51.30976 3.46499,0.002 8.31209,2.44098 31.5574,15.88095 15.10499,8.73341 28.16704,15.87892 29.02677,15.87892 0.85972,0 41.60109,-23.11621 90.53637,-51.36935 76.78564,-44.33276 89.52116,-51.37069 92.97324,-51.37902 3.47892,-0.008 16.05007,7.00022 96.5,53.80031 50.87504,29.59548 93.55534,54.75711 94.84504,55.91473 5.0776,4.55736 5.155,5.17231 5.155,40.94966 v 33.44423 l 58.6409,33.85543 c 44.5401,25.71454 59.087,34.57682 60.4963,36.85544 1.7957,2.90365 1.8554,12.15694 1.8591,288.10212 v 285.10211 l -2.25,3.26797 c -3.191,4.63463 -310.0326,178.09696 -316.1749,178.73856 -3.48426,0.3639 -5.34018,-0.3061 -12.79973,-4.6211 z m 73.22459,-463.48071 c 31.625,-17.95744 57.62344,-33.01099 57.77434,-33.45232 0.3608,-1.05555 -54.14473,-34.15663 -56.24366,-34.15663 -0.88947,0 -14.87946,7.65 -31.08884,17 -16.20939,9.35 -30.27556,17 -31.25817,17 -0.9826,0 -42.2021,-23.85 -91.59888,-53 -49.39678,-29.15 -90.04226,-53 -90.32329,-53 -1.7056,0 -55.28664,33.42457 -54.99304,34.30538 0.56993,1.70978 237.06049,138.73404 238.73154,138.3227 0.825,-0.20308 27.375,-15.06169 59,-33.01913 z M -34.13887,641.32044 c 0.0296,-3.1625 0.43752,-17.675 0.90646,-32.25 0.77361,-24.04464 0.69913,-26.65166 -0.80385,-28.13678 -0.91105,-0.90023 -41.80816,-24.65607 -90.88246,-52.79076 l -89.22601,-51.15399 -26.68757,16.79077 c -14.67817,9.23492 -26.72138,17.24076 -26.76269,17.79076 -0.0671,0.89403 230.82518,135.31582 232.65227,135.4464 0.4125,0.0295 0.77423,-2.5339 0.80385,-5.6964 z m 244.50798,-408.0215 c -0.24361,-0.24362 -40.29245,22.33031 -88.99742,50.16428 -48.70496,27.83397 -89.40423,50.60722 -90.44281,50.60722 -2.75129,0 -3.07751,-2.36351 -3.24353,-23.5 -0.0821,-10.45 -0.42573,-24.2249 -0.76366,-30.61088 l -0.61441,-11.61088 -119,68.8483 c -83.3967,48.24976 -119.74797,68.77727 -121.5,68.61088 l -2.5,-0.23742 -0.26366,-32.75 c -0.14502,-18.0125 -0.4278,-32.75 -0.6284,-32.75 -0.71733,0 -169.13311,96.3108 -170.33883,97.41052 -1.00415,0.91588 102.36715,64.50899 113.61999,69.89801 1.2525,0.59982 9.09453,-3.85292 30.3802,-17.25 15.78056,-9.93219 29.14418,-18.05853 29.69694,-18.05853 0.55276,0 17.77399,9.62913 38.26939,21.39807 125.0302,71.79525 144.05309,82.60193 145.40337,82.60193 0.82218,0 14.57744,-7.90805 30.56722,-17.57345 21.40993,-12.94173 29.62865,-17.42187 31.18306,-16.99831 1.1609,0.31632 41.93572,24.10927 90.61072,52.87322 l 88.5,52.29809 0.25238,-206.46406 c 0.13881,-113.55523 0.0531,-206.66338 -0.19055,-206.90699 z m 153.45801,328.8733 c 14.5641,-8.194 26.4802,-15.44777 26.4802,-16.11947 0,-1.29923 -53.103,-32.97234 -55.2918,-32.97862 -1.9844,-0.006 -55.2069,31.37651 -54.89769,32.37 0.44248,1.42172 53.00449,31.45233 55.20929,31.54312 1.1109,0.0457 13.9359,-6.62102 28.5,-14.81503 z M -276.15723,543.2961 c 0.68704,-16.65089 1.07262,-30.44536 0.85684,-30.65439 -0.21578,-0.20903 -27.50483,-16.64712 -60.64233,-36.52907 -42.5291,-25.51677 -60.25,-36.658 -60.25,-37.87951 0,-1.24633 24.69016,-15.84964 88.25,-52.19659 48.5375,-27.75635 88.23288,-50.9161 88.21196,-51.4661 -0.0403,-1.05888 -53.22282,-32.47072 -55.00658,-32.48918 -2.05619,-0.0213 -235.95538,135.53096 -235.95538,136.74387 0,1.53739 231.69707,136.46993 232.61902,135.46945 0.36702,-0.39828 1.22943,-14.34759 1.91647,-30.99848 z M 454.10202,439.39529 c 31.2371,-17.90621 56.6299,-33.05119 56.4284,-33.65551 -0.4125,-1.23758 -113.2361,-67.66934 -114.9254,-67.66934 -1.3819,0 -55.7977,31.12586 -55.7977,31.91628 0,0.32407 12.6,8.14874 28,17.38817 19.6089,11.76459 28,17.32366 28,18.54983 0,1.23374 -8.0281,6.46101 -27.1811,17.69829 -14.9496,8.77109 -27.3194,16.39743 -27.4885,16.94743 -0.4369,1.42148 52.8518,32.50595 54.6696,31.88993 0.825,-0.27958 27.0576,-15.15887 58.2947,-33.06508 z M -93.10888,331.92046 c 64.85389,-37.48249 117.91616,-68.43158 117.91616,-68.77575 0,-0.7739 -54.61087,-33.07427 -55.91933,-33.07427 -0.90101,0 -169.52457,98.4989 -177.33067,103.58503 l -3.75,2.44335 v 31.98581 c 0,17.59219 0.26273,31.98581 0.58384,31.98581 0.32111,0 53.64611,-30.66749 118.5,-68.14998 z m 218.838,-56.41141 c 46.98201,-26.82991 86.35701,-48.95182 87.5,-49.15981 1.36929,-0.24917 22.51303,11.59318 61.98635,34.7178 38.32771,22.4535 60.48165,34.8771 61.50005,34.48837 3.0991,-1.18293 54.0918,-30.96937 54.0918,-31.59671 0,-0.75958 -174.537,-102.9545 -176.88037,-103.56701 -0.89507,-0.23396 -41.8836,22.8135 -91.61967,51.51685 l -90,51.94021 0.27104,30.86084 c 0.31292,35.63036 0.11025,34.20257 4.47889,31.55258 1.78754,-1.0843 41.6899,-23.92321 88.67191,-50.75312 z"
         id="path56"
         sodipodi:nodetypes="cssscsscsssscssssssscssccssccsssssssssssssscssssssssscsscssssssssssscsssssssssssssssssssssssssssssssscsssssssssscsss" />
      <path
         style="fill:#a8a8a8"
         d="m 208.45421,1153.3612 c -1.01919,-0.2624 -112.84419,-64.6183 -248.5,-143.013 -135.65581,-78.39466 -298.84693,-172.6778 -362.64693,-209.51802 -63.8,-36.84023 -118.09578,-68.30232 -120.6573,-69.91575 -8.54096,-5.37973 -7.8427,8.13946 -7.8427,-151.84399 0,-161.55475 -0.87438,-146.51837 8.86182,-152.39303 9.9953,-6.03099 236.36599,-136.68254 240.27864,-138.67863 7.03273,-3.58783 8.25563,-3.13563 38.06415,14.0754 15.23754,8.79794 28.38148,15.99626 29.20876,15.99626 0.82729,0 40.56021,-22.54654 88.29539,-50.10343 47.73518,-27.55688 88.00639,-50.73188 89.49158,-51.5 6.21764,-3.21566 8.49848,-2.33735 37.92267,14.60343 15.28459,8.8 28.2867,16 28.89358,16 0.60688,0 41.34132,-23.22112 90.52097,-51.60248 85.09021,-49.1052 89.6243,-51.58482 93.68999,-51.23747 3.5566,0.30386 155.29889,87.07757 187.99719,107.50607 7.3749,4.60751 7.2175,3.75254 7.7753,42.22678 l 0.5,34.48568 57.3707,33.20417 c 31.5539,18.26229 58.5539,34.38733 60,35.83341 l 2.6293,2.62924 0.2552,285.06528 c 0.2817,314.68878 0.8069,289.032 -6.0098,293.53155 -5.4505,3.59773 -304.77281,172.47123 -308.3438,173.96323 -3.41114,1.4253 -4.50547,1.522 -7.75471,0.6853 z m 155.04401,-100.8903 c 81.845,-45.4297 149.3154,-83.11722 149.9343,-83.74998 2.0472,-2.09319 0.5392,-556.93124 -1.5122,-556.37368 -0.8872,0.24112 -26.813,14.88157 -57.613,32.53432 l -56,32.09593 v 35.7004 35.7004 l -29.5,16.61869 -29.5,16.61869 -0.2625,35.58369 c -0.2385,32.3371 -0.421,35.72374 -2,37.11869 -0.9556,0.84425 -26.93754,15.79674 -57.73754,33.22776 -30.8,17.43102 -57.61678,32.73952 -59.59284,34.01888 l -3.59284,2.32612 -0.65896,117.83981 c -0.36242,64.8119 -0.95332,157.32728 -1.31311,205.58978 -0.35979,48.2625 -0.38559,87.75 -0.0574,87.75 0.32824,0 67.56092,-37.1698 149.40599,-82.5995 z m -91.1009,-366.25347 c 31.85048,-18.06916 57.91,-33.44388 57.91,-34.16604 0,-1.02976 -50.43665,-32.7215 -55.12972,-34.64063 -0.62132,-0.25407 -14.5568,7.28317 -30.96774,16.74942 -16.41093,9.46626 -30.58742,17.40734 -31.50331,17.64685 -0.96498,0.25235 -39.22454,-21.73931 -90.98131,-52.29623 -49.12383,-29.00244 -90.01791,-52.91524 -90.87572,-53.13956 -1.79026,-0.46817 -56.54224,32.22023 -56.54224,33.75723 0,1.21373 236.30185,138.74199 238.59004,138.85998 0.87452,0.0451 27.64952,-14.70187 59.5,-32.77102 z M -33.80016,638.82044 c 0.31465,-4.5375 0.69255,-19.44559 0.83977,-33.1291 l 0.26767,-24.8791 -90.41487,-51.91462 c -55.48501,-31.85852 -91.00689,-51.68745 -91.94729,-51.32658 -3.6219,1.38985 -53.12352,33.09593 -53.13033,34.03028 -0.008,1.04539 230.51728,135.1718 232.65272,135.36445 0.75374,0.068 1.36067,-2.78573 1.73233,-8.14533 z m 245.60744,-199.25 c 0,-116.91317 -0.37961,-207.5 -0.86955,-207.5 -0.47825,0 -41.06256,22.96211 -90.18736,51.02692 -74.24399,42.41531 -89.5419,50.80284 -90.64558,49.69916 -1.01905,-1.01905 -1.47835,-8.71507 -1.97549,-33.10096 -0.57762,-28.33418 -0.81952,-31.72728 -2.23488,-31.34884 -0.87293,0.2334 -55.07084,31.34714 -120.4398,69.14164 -65.36896,37.7945 -119.48146,68.47598 -120.25,68.18106 -1.15743,-0.44415 -1.39734,-6.20738 -1.39734,-33.5676 0,-18.16726 -0.27983,-33.03138 -0.62184,-33.03138 -1.41556,0 -173.28323,98.56277 -173.08579,99.26134 0.11835,0.41873 26.4905,16.51572 58.60476,35.77108 53.98561,32.36917 58.54847,34.90668 60.49623,33.64332 36.36973,-23.59028 55.94248,-34.98648 58.44256,-34.02809 1.46524,0.56169 42.38839,23.83941 90.94032,51.72826 48.55193,27.88885 88.96671,50.97196 89.81063,51.2958 0.94116,0.36116 12.91237,-6.27326 30.96362,-17.15997 21.50521,-12.96981 30.03778,-17.62021 31.68936,-17.27129 1.24308,0.26262 41.86015,23.91204 90.26015,52.55426 48.4,28.64222 88.5625,52.10568 89.25,52.14103 0.99619,0.0512 1.25,-42.06813 1.25,-207.43574 z m 152.22434,122.87419 c 15.3222,-8.5942 27.7251,-16.02605 27.562,-16.51522 -0.872,-2.61613 -56.2422,-33.68709 -58.2332,-32.67755 -9.564,4.84949 -53.54564,31.29723 -53.51908,32.18294 0.0276,0.92151 54.32648,32.63564 55.87668,32.63564 0.2503,0 12.9914,-7.03162 28.3136,-15.62581 z m -641.13581,8.87581 c 0.0487,-2.0625 0.6112,-15.9 1.25,-30.75 1.02789,-23.89479 0.98608,-27.17251 -0.3636,-28.5 -0.83879,-0.825 -28.18598,-17.475 -60.77152,-37 -40.51794,-24.27802 -59.16053,-35.97417 -58.97463,-37 0.14951,-0.825 39.98419,-24.20975 88.52152,-51.9661 48.53734,-27.75636 88.24554,-50.93136 88.24045,-51.5 -0.0122,-1.36755 -53.48183,-32.54371 -55.74023,-32.50009 -1.99027,0.0384 -236.50817,135.22128 -236.94462,136.58168 -0.30599,0.95374 231.36822,136.25648 233.4441,136.33639 0.77141,0.0297 1.2839,-1.38766 1.33853,-3.70188 z M 453.84912,439.87459 c 31.877,-18.25771 57.9582,-33.51532 57.9582,-33.90579 0,-1.06543 -114.3854,-67.89836 -116.2089,-67.89836 -2.0207,0 -55.0648,30.32103 -55.5404,31.748 -0.1968,0.5902 12.1539,8.5826 27.4458,17.76088 15.2919,9.17829 28.0126,16.89013 28.2681,17.13742 1.4016,1.35633 -4.0081,5.03082 -28.2819,19.21014 -14.7292,8.60396 -26.8365,16.09356 -26.9049,16.64356 -0.1191,0.95683 52.7495,32.5 54.4723,32.5 0.4585,0 26.9147,-14.93813 58.7917,-33.19585 z M -93.04362,332.23096 c 64.54299,-37.31172 117.3509,-68.4031 117.3509,-69.09196 0,-1.37368 -53.12076,-33.06856 -55.42305,-33.06856 -0.7835,0 -41.84633,23.6833 -91.25074,52.62955 l -89.82621,52.62955 c -1.76262,17.36507 -6.4361,49.16032 -0.65838,66.25086 -1.99693,1.77116 55.26448,-32.03773 119.80748,-69.34944 z m 457.85094,17.279 c 14.025,-8.00549 26.0689,-15.11438 26.7643,-15.79752 0.9776,-0.96037 1.2044,-8.40279 1,-32.81532 l -0.2643,-31.57326 -26.75,15.48225 -26.75,15.48224 v 13.14105 c 0,7.22757 -0.2977,21.57854 -0.6581,31.89104 -0.3862,11.05007 -0.2824,18.74897 0.2528,18.74749 0.4994,-10e-4 12.3831,-6.55247 26.4081,-14.55797 z M 124.52527,276.51627 c 48.54965,-27.74521 88.73155,-50.44583 89.29314,-50.44583 0.56158,0 27.63387,15.58545 60.16064,34.63433 32.52677,19.04888 59.94397,34.84468 60.92707,35.10177 2.2205,0.58067 56.1387,-30.52373 55.6182,-32.08511 -0.4581,-1.37429 -173.42783,-102.74132 -176.42041,-103.38926 -2.00362,-0.43381 -177.06282,99.30383 -181.12347,103.19267 -1.45677,1.39514 -1.75162,31.73274 -0.51846,53.34514 0.5541,9.71103 0.8659,11.21466 2.21798,10.69582 0.86528,-0.33204 41.29567,-23.30433 89.84531,-51.04953 z"
         id="path54"
         sodipodi:nodetypes="ssssssssssssssssscsscsssssssscccccsssscssssssssssssssssscsscssssssssssssssssssssssssssssssssssssssssssssssssssssssccscsscccsscccssssssssss" />
      <path
         style="fill:#8f8f8f"
         d="m 61.80728,1068.9401 c -80.025,-46.2552 -244.05,-141.02273 -364.5,-210.59453 -120.45,-69.57181 -220.575,-127.72511 -222.5,-129.22957 -6.18831,-4.83639 -5.88212,2.90789 -5.94356,-150.32768 -0.062,-154.66897 -0.4506,-145.09757 6.08745,-149.93989 8.95301,-6.63093 245.3271,-142.02997 248.70839,-142.46433 3.26409,-0.4193 6.68359,1.27122 32.51417,16.07434 28.05859,16.07994 28.94314,16.50327 31.60635,15.12606 1.50694,-0.77927 41.84204,-23.99524 89.63355,-51.59104 56.40969,-32.57212 88.14859,-50.3436 90.47083,-50.65709 4.33617,-0.58537 4.34997,-0.57858 35.9064,17.6631 13.38783,7.73903 25.09099,14.07097 26.00704,14.07097 0.91605,0 30.2054,-16.48237 65.08746,-36.6275 113.41696,-65.5007 114.97175,-66.3725 118.3697,-66.3725 3.67062,0 0.57612,-1.74215 111.01626,62.5 61.5527,35.80474 81.243,47.71459 82.6636,50 1.722,2.77007 1.8664,5.56755 1.884,36.5 0.01,18.425 0.3496,33.99837 0.7537,34.60749 0.4041,0.60912 26.8309,16.19411 58.7263,34.6333 35.3682,20.44686 58.7751,34.57521 60,36.2158 1.9985,2.67675 2.0098,4.0845 2.301,285.8667 0.3047,294.82371 0.3942,288.3222 -4.0258,292.37498 -1.2467,1.14317 -71.6692,41.27869 -156.4945,89.19009 -138.20593,78.0621 -154.67148,87.11 -158.5,87.0966 -3.83108,-0.014 -19.29987,-8.7011 -149.77234,-84.1153 z M 209.18343,923.16464 c 0.35166,-82.82681 0.91556,-161.64624 1.25312,-175.15429 l 0.61374,-24.5601 -48.37151,-28.0805 C 2.09879,602.15026 -27.49638,585.04171 -27.73836,585.29228 c -0.14775,0.15299 -0.59553,14.45316 -0.99507,31.77816 -0.72674,31.51305 -1.20007,36 -3.79766,36 -0.76333,0 -54.35463,-30.64483 -119.09179,-68.09963 -64.73716,-37.45479 -117.95025,-67.85329 -118.25133,-67.55222 -0.30107,0.30108 -1.15919,14.31993 -1.90694,31.15302 -1.40491,31.62708 -1.5134,32.49883 -4.04478,32.49883 -0.83334,0 -54.59887,-30.88291 -119.47895,-68.62869 -64.88008,-37.74579 -118.10966,-68.45829 -118.28794,-68.25 -0.17829,0.20828 -0.62402,62.08411 -0.99053,137.50185 l -0.66637,137.12315 82.2785,47.47378 c 81.20911,46.85675 394.44082,227.62037 556.7785,321.31247 l 83.5,48.1916 0.61839,-31.0179 c 0.34011,-17.0598 0.90611,-98.7852 1.25776,-181.61206 z m 155.22479,129.62786 149.8991,-83.27782 0.2302,-175.97212 c 0.1267,-96.78467 -0.098,-222.62103 -0.5,-279.63637 l -0.7302,-103.66425 -57.8939,33.15595 -57.894,33.15595 0.5233,34.73222 c 0.3769,25.0213 0.2075,35.12205 -0.6061,36.12651 -0.6211,0.76687 -13.0543,8.04986 -27.6293,16.18443 -14.575,8.13457 -27.7375,15.64951 -29.25,16.69988 l -2.75,1.90975 v 35.45393 35.45393 l -4.3604,2.72797 c -2.3983,1.50039 -29.7988,17.12798 -60.89002,34.72798 l -56.52949,32 -0.59826,26 c -0.32904,14.3 -0.83049,86.75 -1.11434,161 -0.28385,74.24996 -0.8002,155.58746 -1.14746,180.74996 -0.41185,29.843 -0.28837,45.75 0.35513,45.75 0.54258,0 68.44113,-37.475 150.88574,-83.2779 z M 273.40015,685.96671 c 32.12392,-18.20705 58.40717,-33.441 58.40717,-33.85323 0,-0.90021 -54.31558,-34.06343 -56.77915,-34.66739 -0.97775,-0.23969 -13.38048,6.32037 -28.72089,15.19108 -14.85,8.58712 -28.71816,16.49731 -30.81814,17.5782 l -3.81815,1.96525 -4.68185,-2.72802 c -2.57502,-1.50041 -43.04494,-25.3752 -89.93315,-53.05509 -46.88821,-27.67989 -86.03821,-50.31489 -87,-50.30001 -2.60202,0.0403 -55.74871,32.49757 -55.74871,34.04639 0,1.5598 236.12004,138.88666 238.84287,138.91045 1.01358,0.009 28.12608,-14.88058 60.25,-33.08763 z M 211.80728,439.57044 c 0,-114.675 -0.19068,-208.5 -0.42374,-208.5 -0.23305,0 -40.55558,22.95 -89.60561,51 -49.05002,28.05 -89.80077,51 -90.55721,51 -2.07233,0 -2.23953,-2.03782 -2.86626,-34.93299 -0.31891,-16.73814 -0.77825,-30.63141 -1.02077,-30.87393 -0.24252,-0.24252 -54.29562,30.68618 -120.118,68.73044 -65.82238,38.04427 -120.40411,69.03151 -121.29273,68.86054 -1.44187,-0.27742 -1.64404,-3.83265 -1.87934,-33.04746 -0.16743,-20.78782 -0.62547,-32.7366 -1.25492,-32.7366 -2.13686,0 -173.02596,98.36637 -172.68197,99.39836 0.36933,1.10797 115.52111,70.60014 116.98937,70.60112 0.43385,2.8e-4 13.46925,-7.97091 28.96757,-17.71377 15.49832,-9.74285 28.89084,-17.71428 29.76116,-17.71428 0.87032,0 42.27288,23.34643 92.00569,51.88095 49.73282,28.53452 90.95062,51.88095 91.59512,51.88095 0.6445,0 14.49318,-8.02262 30.77484,-17.82804 26.08938,-15.712 29.8703,-17.70152 31.85491,-16.76208 1.23854,0.58628 41.85189,24.48925 90.25189,53.11772 48.4,28.62847 88.3375,52.0714 88.75,52.09541 0.4125,0.024 0.75,-93.78134 0.75,-208.45634 z M -32.81891,614.21867 c 0.72848,-26.95255 0.64533,-32.54967 -0.5,-33.65496 -1.81105,-1.74773 -177.76993,-102.65334 -180.04322,-103.24782 -1.59671,-0.41755 -53.97689,31.56422 -55.35903,33.80056 -0.29441,0.47637 0.49155,1.53826 1.74657,2.35976 10.623,6.95349 230.63289,133.49306 231.78187,133.31027 1.27635,-0.20304 1.63028,-5.0589 2.37381,-32.56781 z m 365.61163,0.10177 -0.014,-32.75 -27.2355,-15.63888 -27.23544,-15.63888 -0.82096,31.03221 c -0.66754,25.23286 -0.5741,31.2688 0.5,32.29824 1.13689,1.08962 53.8861,33.41089 54.571,33.43757 0.1375,0.005 0.2434,-14.72776 0.2354,-32.74026 z m 31.5146,-51.64842 c 14.85,-8.40735 27,-15.88713 27,-16.62173 0,-1.05478 -30.605,-19.75902 -52.6941,-32.20407 l -3.6942,-2.08128 -28.05736,16.39834 c -15.43153,9.01908 -27.92393,16.79851 -27.76089,17.28762 0.4342,1.3026 54.93795,32.57852 56.70655,32.53994 0.825,-0.018 13.65,-6.91147 28.5,-15.31882 z m -641.10074,6.14842 c 1.86671,-20.89048 2.49818,-55.28134 1.04195,-56.74739 -0.8209,-0.82643 -28.1435,-17.50168 -60.7169,-37.0561 -32.57339,-19.55441 -59.22435,-36.13835 -59.22435,-36.85319 0,-0.71484 38.85336,-23.50329 86.34081,-50.641 99.73622,-56.99639 91.8162,-52.25237 90.02472,-53.92405 -1.17437,-1.09585 -47.35598,-28.16685 -53.57429,-31.40448 -1.98162,-1.03175 -14.27033,5.80447 -119.5,66.47799 -119.83807,69.09647 -120.90673,69.73516 -119.24838,71.26951 1.96013,1.81358 231.914,135.12871 233.08209,135.12871 0.76522,0 1.42286,-2.31647 1.77435,-6.25 z m 669.87364,-58 c -0.2025,-16.6375 -0.5593,-31.15 -0.793,-32.25 -0.3786,-1.78228 -48.8984,-31.28987 -53.1498,-32.32332 -1.0854,-0.26385 -1.3301,5.45597 -1.3301,31.09436 v 31.41769 l 27.25,16.07453 c 14.9875,8.84098 27.5068,16.11102 27.8206,16.15563 0.3138,0.0446 0.4049,-13.53139 0.2023,-30.16889 z m 60.8027,-70.6282 c 31.5834,-18.08301 57.4244,-33.4702 57.4244,-34.19376 0,-1.0595 -113.5851,-68.77236 -115.5655,-68.89346 -1.3848,-0.0847 -56.4345,32.07602 -56.4345,32.96969 0,0.55038 12.6,8.56046 28,17.80018 15.4,9.23971 28,17.39187 28,18.1159 0,0.72403 -12.0271,8.36279 -26.727,16.97502 -26.0251,15.24741 -29.6327,17.57829 -28.6803,18.53069 1.6292,1.62917 53.7129,31.49894 54.9829,31.53241 0.8665,0.0228 27.4165,-14.75366 59,-32.83667 z M -90.94272,331.32011 c 64.2125,-37.1031 116.75,-67.77292 116.75,-68.15516 0,-0.38224 -12.80781,-8.2464 -28.46181,-17.47592 l -28.4618,-16.78094 -88.2882,51.72357 c -48.5585,28.44796 -89.52569,52.59013 -91.03819,53.64927 l -2.75,1.9257 v 31.76524 c 0,17.47088 0.28417,32.0494 0.63148,32.39672 0.84241,0.8424 -9.51895,6.72503 121.61852,-69.04848 z m 456.45534,18.63299 c 14.5461,-8.31454 26.6445,-15.63069 26.8853,-16.25812 0.2408,-0.62743 0.3189,-15.5535 0.1736,-33.16903 l -0.2642,-32.02824 -27,15.60866 -27,15.60866 -0.2637,32.67771 c -0.145,17.97273 0.025,32.6777 0.3789,32.6777 0.3534,0 12.5439,-6.8028 27.0901,-15.11734 z m -241.1975,-72.92953 c 48.39569,-27.69841 88.66716,-50.36272 89.49216,-50.36513 0.825,-0.002 28.275,15.69139 61,34.87509 32.725,19.18369 60.18084,34.83838 61.01294,34.78819 1.8742,-0.11305 55.9871,-31.38263 55.9871,-32.35257 0,-0.56106 -168.56508,-99.55757 -176.7217,-103.78681 -1.9953,-1.03457 -11.41685,4.15311 -92.47062,50.91603 -49.63692,28.63739 -90.54731,52.55072 -90.91197,53.14075 -0.70317,1.13775 -0.0485,60.37431 0.69293,62.69477 0.72606,2.2725 1.06469,2.08864 91.91916,-49.91032 z"
         id="path52"
         sodipodi:nodetypes="sssssssssssssssscsssssscssscssssssssssscsscssscsccccsssscccsscsssssssssscssssssssssssssssssssssssssssssssssccccsscccssscssssssssssssssssssscsssssssssssssssscsscsssssscccsssscssssssss" />
      <path
         style="fill:#6e6e6e"
         d="m 346.80732,1194.5704 c 0,-0.275 0.225,-0.5 0.5,-0.5 0.275,0 0.5,0.225 0.5,0.5 0,0.275 -0.225,0.5 -0.5,0.5 -0.275,0 -0.5,-0.225 -0.5,-0.5 z m 0,-4.5 c 0,-0.7333 0.3,-1.0333 0.6667,-0.6667 0.3666,0.3667 0.3666,0.9667 0,1.3334 -0.3667,0.3666 -0.6667,0.067 -0.6667,-0.6667 z m -27.4428,-3.2723 c -1.5661,-2.3901 -1.5632,-3.1311 0.028,-7.2277 0.5783,-1.4894 0.9449,-0.5957 1.4359,3.5 0.7847,6.546 0.6342,6.9292 -1.4635,3.7277 z m 159.4581,-0.9777 c 0.01,-2.2096 0.2913,-2.8144 0.8774,-1.8893 0.7863,1.241 0.4,5.1393 -0.5093,5.1393 -0.2109,0 -0.3765,-1.4625 -0.3681,-3.25 z m -124.9364,-0.3333 c 0.048,-1.165 0.285,-1.4019 0.6042,-0.6042 0.2889,0.7219 0.2534,1.5844 -0.079,1.9167 -0.3323,0.3323 -0.5687,-0.2584 -0.5253,-1.3125 z m 14.9211,-1.4167 c 0,-0.7333 0.3,-1.0333 0.6667,-0.6667 0.3666,0.3667 0.3666,0.9667 0,1.3334 -0.3667,0.3666 -0.6667,0.067 -0.6667,-0.6667 z m 82.0789,-0.5833 c 0.048,-1.165 0.285,-1.4019 0.6042,-0.6042 0.2889,0.7219 0.2534,1.5844 -0.079,1.9167 -0.3323,0.3323 -0.5687,-0.2584 -0.5253,-1.3125 z m 8,0 c 0.048,-1.165 0.285,-1.4019 0.6042,-0.6042 0.2889,0.7219 0.2534,1.5844 -0.079,1.9167 -0.3323,0.3323 -0.5687,-0.2584 -0.5253,-1.3125 z m -112.0789,0.083 c 0,-0.275 0.225,-0.5 0.5,-0.5 0.275,0 0.5,0.225 0.5,0.5 0,0.275 -0.225,0.5 -0.5,0.5 -0.275,0 -0.5,-0.225 -0.5,-0.5 z m 11,0 c 0,-0.275 0.225,-0.5 0.5,-0.5 0.275,0 0.5,0.225 0.5,0.5 0,0.275 -0.225,0.5 -0.5,0.5 -0.275,0 -0.5,-0.225 -0.5,-0.5 z m 36.0789,-1.0833 c 0.048,-1.165 0.285,-1.4019 0.6042,-0.6042 0.2889,0.7219 0.2534,1.5844 -0.079,1.9167 -0.3323,0.3323 -0.5687,-0.2584 -0.5253,-1.3125 z m 10.9211,0.5833 c 0,-0.55 0.45,-1 1,-1 0.55,0 1,0.45 1,1 0,0.55 -0.45,1 -1,1 -0.55,0 -1,-0.45 -1,-1 z m 14,0.5 c 0,-0.275 0.225,-0.5 0.5,-0.5 0.275,0 0.5,0.225 0.5,0.5 0,0.275 -0.225,0.5 -0.5,0.5 -0.275,0 -0.5,-0.225 -0.5,-0.5 z m 28,-4 c 0,-0.275 0.225,-0.5 0.5,-0.5 0.275,0 0.5,0.225 0.5,0.5 0,0.275 -0.225,0.5 -0.5,0.5 -0.275,0 -0.5,-0.225 -0.5,-0.5 z m 32,-0.5 c 0,-0.7333 0.3,-1.0333 0.6667,-0.6667 0.3666,0.3667 0.3666,0.9667 0,1.3334 -0.3667,0.3666 -0.6667,0.067 -0.6667,-0.6667 z M -159.09254,940.89368 C -447.3409,774.31269 -526.89015,727.92413 -528.3388,725.57044 c -2.89406,-4.70211 -2.87978,-288.33441 0.0148,-293 1.43892,-2.31934 29.74206,-19.10888 124.74627,-74 l 122.88506,-71 5.5,0.0714 c 5.23817,0.068 6.78535,0.81953 32.5,15.78637 14.85,8.64322 27.71194,15.53548 28.5821,15.31611 0.87015,-0.21936 41.58093,-23.48572 90.46839,-51.70303 77.4408,-44.69798 89.40542,-51.30244 92.9179,-51.29058 3.362,0.0113 8.2356,2.44836 29.3431,14.67278 33.48366,19.39209 30.5844,18.0107 34.04486,16.22123 1.57099,-0.8124 41.95849,-24.06525 89.75,-51.673 75.04094,-43.34897 87.43927,-50.19677 90.89365,-50.2021 4.92368,-0.008 189.13879,106.59284 192.89359,111.62242 2.0223,2.709 2.1264,4.20548 2.6064,37.5 l 0.5,34.67839 57.5,33.24072 c 31.8366,18.40471 58.7274,34.59086 60.25,36.26578 l 2.75,3.02505 0.1107,282.23423 c 0.1211,308.85759 0.2202,286.14209 -1.2647,289.94827 -1.4339,3.67548 7.9182,-1.76364 -161.3102,93.81592 -114.69795,64.7809 -151.93369,85.3664 -154.99997,85.6902 -3.83252,0.4048 -22.54293,-10.2691 -371.43564,-211.89693 z M 208.9009,1118.3204 c 0.0515,-10.3125 0.63461,-103.125 1.29581,-206.24996 0.66121,-103.125 0.91086,-188.11223 0.55478,-188.86051 -0.82976,-1.74372 -237.84053,-139.3216 -238.89356,-138.67079 -0.43408,0.26827 -1.10212,14.78507 -1.48453,32.25954 -0.72777,33.25565 -0.89863,35.27176 -2.9892,35.27176 -0.70856,0 -53.89074,-30.44538 -118.18261,-67.6564 -64.29187,-37.21102 -117.62547,-67.84877 -118.5191,-68.08389 -1.83708,-0.48334 -2.37653,4.97742 -3.38249,34.24029 -0.82019,23.85921 -1.42413,29.5 -3.15847,29.5 -0.80453,0 -47.22136,-26.62865 -103.14851,-59.17478 -135.40744,-78.79871 -133.72043,-77.82522 -134.86722,-77.82522 -1.25334,0 -2.58021,275.09903 -1.333,276.36956 1.09823,1.11876 722.26749,417.4712 723.26448,417.562 0.4125,0.038 0.79213,-8.3691 0.84362,-18.6816 z m 155.64922,-64.7987 c 81.8165,-45.4392 149.3678,-83.20629 150.1141,-83.92672 1.827,-1.76353 0.5641,-559.52454 -1.2668,-559.52454 -0.6227,0 -26.9977,14.80427 -58.6112,32.89838 l -57.4789,32.89838 v 35.69572 35.69571 l -26.014,14.6559 c -14.3077,8.06075 -27.6952,15.65323 -29.75,16.87218 l -3.736,2.21628 v 33.96863 c 0,18.68274 -0.4129,35.05452 -0.9175,36.38173 -0.6993,1.83934 -14.9063,10.3289 -59.75,35.70434 -32.3579,18.31017 -59.5983,34.01607 -60.53424,34.90199 -1.57927,1.49487 -1.77692,12.83454 -2.74722,157.61076 -1.49114,222.49096 -1.43039,257.85946 0.44171,257.14106 0.82104,-0.315 68.43354,-37.7504 150.25005,-83.1898 z M 272.97613,686.82044 c 40.5937,-22.94876 58.73629,-33.71472 58.55979,-34.75 -0.2175,-1.2767 -43.02959,-28.31087 -53.84834,-34.00318 l -3.6197,-1.90452 -30.31224,17.45385 c -16.67174,9.59962 -30.95134,17.45385 -31.73244,17.45385 -0.78111,0 -41.89582,-23.88986 -91.36601,-53.08859 -61.62908,-36.37524 -90.47837,-52.88423 -91.63743,-52.43945 -4.79409,1.83967 -56.25544,33.89916 -55.93886,34.8489 0.2037,0.61111 8.66297,5.92662 18.79838,11.81223 157.41136,91.40858 220.51361,127.86691 221.31259,127.86691 0.53287,0 27.43579,-14.9625 59.78426,-33.25 z M -33.04952,636.98976 c 1.47903,-23.95897 1.78474,-54.63738 0.56015,-56.20996 -0.90682,-1.1645 -167.08346,-97.09414 -179.53664,-103.64203 -2.14689,-1.12884 -4.52721,0.14901 -29.79585,15.99558 -17.59686,11.03541 -27.35628,17.73259 -27.16671,18.64255 0.33201,1.59371 232.72981,136.43998 234.29585,135.94759 0.55,-0.17293 1.28944,-5.00311 1.6432,-10.73373 z M 212.55964,439.77628 c 0.21492,-176.93769 0.0455,-207.8462 -1.14209,-208.3019 -0.76696,-0.29431 -40.93052,22.07049 -89.25237,49.69954 -48.32184,27.62905 -88.7978,50.42215 -89.94657,50.65132 -2.22875,0.44462 -3.3831,-16.79184 -3.42664,-51.16561 -0.008,-6.64905 -0.38287,-12.6685 -0.8321,-13.37654 -0.60189,-0.94865 -32.4628,17.0051 -121.09784,68.23909 -66.15457,38.23954 -120.68012,69.27979 -121.16789,68.97833 -0.48778,-0.30146 -0.88686,-15.11999 -0.88686,-32.93007 0,-21.86135 -0.3466,-32.59618 -1.06681,-33.04129 -1.44194,-0.89117 -175.12853,98.42867 -174.68335,99.88981 0.55931,1.83571 117.09633,71.63394 118.6763,71.07951 0.78437,-0.27524 13.90614,-8.35915 29.15949,-17.96423 15.25334,-9.60509 28.26684,-17.4638 28.91888,-17.4638 0.65205,0 41.30527,23.02922 90.34051,51.17605 49.03524,28.14682 90.28782,51.60597 91.6724,52.13145 2.2335,0.84765 5.8033,-1.03309 31.6525,-16.67605 16.02429,-9.6973 29.81553,-17.63145 30.64721,-17.63145 0.83167,0 41.48805,23.62129 90.3475,52.49175 48.85945,28.87046 89.51037,52.3768 90.33537,52.23631 1.32675,-0.22593 1.52915,-24.25227 1.75236,-208.02222 z m 121.01098,174.71998 -0.2633,-33.57418 -27.83491,-16.00762 c -15.30918,-8.80419 -27.97656,-15.85831 -28.14974,-15.67582 -1.32267,1.39375 -0.85601,63.91478 0.48676,65.21446 1.82718,1.76854 54.17619,33.61734 55.25599,33.61734 0.4227,0 0.65,-15.10838 0.5052,-33.57418 z m -88.67364,14.66386 26.58969,-15.20968 0.67548,-34.66946 c 0.49612,-25.46358 1.00337,-34.97966 1.91031,-35.83766 0.67915,-0.6425 13.38482,-8.24819 28.23482,-16.90152 14.85004,-8.65333 27.78754,-16.41913 28.75004,-17.25733 1.599,-1.39255 1.75,-4.30838 1.75,-33.80392 0,-17.75395 0.3976,-33.32171 0.8835,-34.59501 0.6205,-1.62619 8.9527,-7.03062 28.0007,-18.16182 14.9145,-8.7157 27.3093,-16.15727 27.5438,-16.53684 0.2346,-0.37956 -12.2532,-8.32353 -27.7507,-17.65327 l -28.1773,-16.96317 -0.2845,-36 -0.2845,-36 -57.67589,-33.679 c -31.72174,-18.52345 -58.03122,-33.45939 -58.46552,-33.19098 -0.93459,0.57761 -1.08419,410.74209 -0.15015,411.67613 0.35171,0.35171 0.91421,0.49407 1.25,0.31635 0.33579,-0.17772 12.57588,-7.16749 27.20022,-15.53282 z m 120.91034,-66.85357 c 14.575,-8.22427 26.5,-15.52315 26.5,-16.21975 0,-1.49443 -54.8207,-34.02314 -57.3032,-34.00171 -2.4806,0.0214 -55.64688,31.47696 -55.97402,33.11678 -0.45257,2.26851 55.55562,33.90997 58.19272,32.87556 1.1465,-0.44972 14.0095,-7.54662 28.5845,-15.77088 z m -641.81529,1.75272 c 0.37661,-6.31886 0.82661,-20.68433 1,-31.92327 l 0.31525,-20.43445 -60.20491,-36.06555 c -37.13539,-22.24584 -60.12639,-36.5956 -60,-37.44882 0.1127,-0.76079 39.80491,-24.01392 88.20491,-51.67361 48.4,-27.6597 88.12649,-50.90105 88.28109,-51.64746 0.2686,-1.29677 -54.03347,-33.79567 -56.46883,-33.79567 -2.0571,0 -237.81226,136.63685 -237.81226,137.82909 0,1.47936 232.40977,137.0946 234.5,136.83492 1.18974,-0.14781 1.64163,-2.56266 2.18475,-11.67518 z m 669.88649,-52.03534 c -0.1144,-16.19942 -0.5188,-30.95858 -0.8988,-32.79812 -0.6486,-3.14014 -2.2982,-4.28656 -26.9795,-18.75 -14.4587,-8.47296 -26.671,-15.40537 -27.1383,-15.40537 -1.2522,0 -2.2303,23.76152 -1.8696,45.41859 l 0.315,18.91858 27.5,16.27199 c 15.125,8.9496 27.9003,16.16531 28.3895,16.03491 0.4999,-0.13323 0.7985,-13.13941 0.6817,-29.69058 z m 60.0933,-71.35968 c 32.0845,-18.3734 58.3355,-33.95275 58.3355,-34.62076 0,-2.07068 -115.4842,-69.20095 -117.9105,-68.54063 -4.4099,1.20023 -55.0895,31.1161 -55.0895,32.51905 0,0.83599 11.7616,8.46866 27.7372,18 17.6676,10.54076 27.6512,17.06698 27.5,17.9766 -0.1304,0.78544 -11.0501,7.76044 -24.2659,15.5 -13.2158,7.73956 -25.7735,15.11067 -27.906,16.38024 -3.3884,2.01723 -3.6943,2.49128 -2.4262,3.75938 1.5308,1.53073 53.8842,32.36442 55.0254,32.40732 0.3655,0.0138 26.9155,-15.0078 59,-33.3812 z M -91.73821,332.42543 c 75.38986,-43.52146 117.45256,-68.35196 117.29349,-69.24081 -0.25035,-1.39894 -54.22502,-33.97359 -56.444,-34.06494 -0.6578,-0.0271 -41.8328,23.76026 -91.5,52.86077 l -90.304,52.91001 -0.26363,33.21019 c -0.25891,32.61506 -0.22833,33.20095 1.70651,32.69498 1.08358,-0.28336 54.86381,-31.04995 119.51163,-68.3702 z m 456.33223,18.96935 c 14.1423,-8.07161 26.5008,-15.34135 27.4633,-16.15498 2.1617,-1.8274 2.7595,-67.16936 0.6145,-67.16936 -1.7163,0 -53.1774,29.95064 -54.6145,31.78592 -1.6249,2.07512 -1.8315,66.21408 -0.2133,66.21408 0.5703,0 12.6078,-6.60405 26.75,-14.67566 z m -240.0958,-73.95331 c 53.26786,-30.47837 89.09069,-50.39989 90.13693,-50.12629 0.95497,0.24973 28.35377,16.04682 60.88624,35.10465 32.53247,19.05784 59.74303,34.62307 60.46793,34.5894 2.6122,-0.12131 55.318,-31.55414 55.318,-32.99067 0,-1.38719 -172.60763,-103.27062 -177.02855,-104.49292 -1.71307,-0.47362 -162.31761,90.8101 -179.8804,102.23965 l -3.90892,2.54386 0.64109,31.44729 c 0.3526,17.29602 0.91963,31.89799 1.26007,32.44883 0.9198,1.48827 -2.73989,3.50525 92.10761,-50.7638 z"
         id="path50"
         sodipodi:nodetypes="ssssssssssssssssssssssssssssssssssssssssssssssssssssssssssssssssssssssssssscssssssssssscsscssssssssssssssssssscssssscccsscsssssssssscssssssssssssssssssscssssssssssssssssscsssssscssssssssscccssssssssssssscssssssssssssscsssssssssssssssssscsssssssssssssssscsss" />
      <path
         style="fill:#525252"
         d="m 319.00222,1183.5704 c 0.02,-1.65 0.2445,-2.2039 0.4981,-1.231 0.2535,0.973 0.2369,2.323 -0.037,3 -0.2739,0.6771 -0.4813,-0.119 -0.461,-1.769 z m -111.74425,-31.8675 c -2.3682,-1.0618 -326.9391,-188.44728 -705.91092,-407.5457 -20.50246,-11.85327 -27.51109,-16.40421 -29.26,-18.99948 l -2.29976,-3.41272 0.25999,-143.81814 0.26,-143.81815 3,-2.87679 c 2.22134,-2.1301 231.76706,-135.47548 246.39416,-143.1328 4.64875,-2.43364 9.13705,-0.55533 36.66367,15.34338 14.8818,8.59537 27.8625,15.62794 28.846,15.62794 0.9835,0 41.93984,-23.175 91.0141,-51.5 74.13619,-42.79042 89.85528,-51.5 92.9474,-51.5 2.98234,0 9.24112,3.17789 31.51166,16 30.6657,17.65556 28.83257,16.93145 34.53515,13.64192 2.24832,-1.29694 42.41406,-24.47194 89.2572,-51.5 70.28588,-40.55431 85.81322,-49.14192 88.8539,-49.14192 3.04778,0 17.53596,8.06031 83.83066,46.6381 112.95914,65.73243 108.03104,62.76623 109.69134,66.023 1.1593,2.27402 1.5095,9.62841 1.7601,36.96103 l 0.3128,34.12213 58.5907,33.87787 c 44.5466,25.75739 59.0333,34.59697 60.4372,36.87787 1.784,2.89836 1.8467,12.62577 1.8503,287.10212 v 284.10211 l -2.25,3.29484 c -2.4916,3.64858 -308.68581,177.51029 -314.35823,178.49739 -1.5905,0.2767 -4.264,-0.1121 -5.94112,-0.864 z m 3.71504,-221.94285 c 1.04462,-179.39512 1.01407,-206.92637 -0.23092,-208.09259 -0.78914,-0.73922 -34.28481,-20.37499 -74.43481,-43.63504 -40.15,-23.26006 -93.43688,-54.16159 -118.41528,-68.67006 -24.97841,-14.50848 -46.00904,-26.1512 -46.73475,-25.87272 -1.15009,0.44133 -4.06078,-3.10952 -3.18099,-3.88062 1.89355,-1.65962 4.71676,-1.39148 5.00577,0.47543 0.38565,2.49119 236.38973,139.98599 240.2801,139.98599 1.26128,0 4.37492,-1.16347 6.9192,-2.58549 2.54427,-1.42203 4.62595,-2.35011 4.62595,-2.06242 0,0.2877 -2.24078,1.74267 -4.97952,3.23328 -2.73873,1.4906 -5.18495,3.43119 -5.43605,4.31241 -0.92819,3.25751 -2.84651,413.24008 -1.93781,414.14878 0.7108,0.7108 291.76372,-159.79853 301.82882,-166.45202 3.2343,-2.13803 2.3661,-561.60014 -0.8715,-561.59164 -0.9378,0.002 -10.0595,5.10038 -50.3539,28.14179 -2.8875,1.65115 -5.25,2.77372 -5.25,2.4946 0,-0.27911 12.375,-7.57023 27.5,-16.20248 18.3506,-10.47321 27.4944,-16.23428 27.483,-17.3159 -0.014,-1.38864 -109.472,-66.69629 -116.2863,-69.38207 -1.7335,-0.6832 -12.7609,5.17632 -46.9467,24.94548 -0.4125,0.23854 -0.75,0.21555 -0.75,-0.0511 0,-0.26664 8.8875,-5.53612 19.75,-11.70995 10.8625,-6.17382 21.2125,-12.30512 23,-13.6251 l 3.25,-2.39996 v -32.9805 c 0,-35.58547 0.013,-35.50228 -5.1719,-32.9059 -1.7732,0.88797 -1.6131,0.56659 0.6719,-1.34835 2.1566,-1.80738 2.6974,-2.82373 1.9236,-3.61524 -0.592,-0.60557 -41.064,-24.4835 -89.93766,-53.06205 l -88.86122,-51.96101 -7.06238,3.90595 c -36.25799,20.05302 -175.06673,101.2085 -175.95894,102.87561 -1.24575,2.32771 -3.16435,1.7388 -3.73776,-1.14728 -0.40753,-2.0512 -54.77607,-34.65944 -57.78856,-34.65944 -2.66836,0 -179.24307,103.70642 -181.78287,106.76529 -2.31313,2.78589 -2.89261,2.67056 -4.69321,-0.93404 -1.61247,-3.22799 -54.35067,-33.94498 -57.60104,-33.54931 -3.91486,0.47655 -238.0011,135.91469 -237.99368,137.69891 0.003,0.83553 1.24098,2.2259 2.75,3.08971 1.50903,0.8638 54.3843,31.62882 117.5006,68.36669 95.51752,55.59753 115.00725,66.5884 116.25,65.557 1.24434,-1.03271 1.49308,-0.88555 1.49308,0.88331 0,1.16734 -0.49983,2.12244 -1.11072,2.12244 -0.6109,0 -53.81177,-30.66851 -118.22416,-68.15224 -64.41239,-37.48373 -117.85839,-68.34705 -118.7689,-68.58515 -2.18118,-0.57039 -3.15893,68.74668 -2.70922,192.0683 l 0.313,85.83092 108.5,62.61082 c 59.675,34.43596 222.56782,128.43423 361.98403,208.88501 139.41622,80.4508 253.82013,145.9381 254.23092,145.5274 0.41078,-0.4108 1.28863,-93.7837 1.95078,-207.49545 z m 14.83427,-215.0251 c 0,-0.34725 11.07117,-6.79276 21.25,-12.37149 0.4125,-0.22608 0.75,-0.20697 0.75,0.0425 0,0.34725 -11.07117,6.79276 -21.25,12.37149 -0.4125,0.22608 -0.75,0.20697 -0.75,-0.0425 z m 23.5,-13.40442 c 0.55,-0.57199 3.7,-2.5126 7,-4.31247 3.3,-1.79986 5.55,-2.8169 5,-2.26009 -0.55,0.55682 -3.7,2.49743 -7,4.31247 -3.3,1.81504 -5.55,2.83208 -5,2.26009 z m 13.5,-7.58604 c 0,-0.32938 18.77325,-11.21667 28.25,-16.3832 0.4125,-0.22489 0.75,-0.20909 0.75,0.0351 0,0.32938 -18.77325,11.21667 -28.25,16.3832 -0.4125,0.22489 -0.75,0.20909 -0.75,-0.0351 z m 30,-17 c 0,-0.32938 18.77325,-11.21667 28.25004,-16.3832 0.4125,-0.22489 0.75,-0.20909 0.75,0.0351 0,0.32938 -18.77329,11.21667 -28.25004,16.3832 -0.4125,0.22489 -0.75,0.20909 -0.75,-0.0351 z m 30.00004,-17.12269 c 0,-0.275 1.35,-1.19811 3,-2.05136 1.65,-0.85325 3,-1.32636 3,-1.05136 0,0.275 -1.35,1.19811 -3,2.05136 -1.65,0.85325 -3,1.32636 -3,1.05136 z m 8.4779,-4.98881 c 1.509,-1.23312 1.7331,-2.00449 0.9453,-3.25341 -1.3147,-2.08422 -55.3679,-35.19811 -57.55913,-35.26168 -0.89974,-0.0261 -14.17474,7.21639 -29.5,16.09443 -33.01961,19.12851 -33.29467,19.276 -34.17644,18.32554 -0.37822,-0.40768 -0.12517,-0.94213 0.56233,-1.18767 1.61266,-0.57595 1.86232,-419.27976 0.25,-419.27976 -1.58883,0 -1.15946,-1.72483 0.59718,-2.39892 1.02774,-0.39438 22.9113,11.86791 61.37855,34.39301 32.87976,19.25325 60.79381,35.00591 62.03111,35.00591 1.2374,0 4.7795,-1.3854 7.8715,-3.07867 6.2567,-3.42641 4.7743,-1.88774 -2.1251,2.20578 l -4.4278,2.62712 -0.6601,20.37288 c -0.363,11.20509 -0.6612,26.34951 -0.6627,33.65427 0,15.35982 0.3215,15.87108 7.4305,11.70493 6.2117,-3.64028 5.8059,-2.55547 -0.5135,1.37291 -2.7943,1.73699 -4.9096,3.71676 -4.7007,4.39948 0.2088,0.68271 12.9575,8.81183 28.3304,18.06469 15.3729,9.25287 28.0538,17.12787 28.1798,17.5 0.1259,0.37214 -12.3841,8.04356 -27.8001,17.0476 -20.4145,11.92355 -27.9445,16.80977 -27.718,17.98612 0.3751,1.94755 53.1194,33.14289 56.0372,33.14289 1.6437,0 10.4599,-4.72487 33.0018,-17.68677 0.4125,-0.2372 0.75,-0.21326 0.75,0.0532 0,0.26645 -7.1548,4.57573 -15.8996,9.57618 -8.7448,5.00044 -16.1793,9.82069 -16.5212,10.71165 -0.3419,0.89097 -0.3158,17.03953 0.058,35.8857 l 0.6797,34.26576 -5.1584,2.614 c -2.8372,1.43769 -5.1585,2.39297 -5.1585,2.12283 0,-0.27015 1.35,-1.18928 3,-2.04253 6.022,-3.11408 4.716,-4.23997 -25.4636,-21.95248 -19.0305,-11.16904 -29.0556,-16.5114 -30.25,-16.12002 -5.3221,1.74395 -55.78644,32.38942 -55.78644,33.8774 0,1.85545 54.40924,33.6951 57.57994,33.6951 1.0076,0 4.1035,-1.3393 6.8798,-2.97622 6.8246,-4.02392 11.0403,-6.16973 11.0403,-5.61951 0,0.2506 -3.3216,2.2892 -7.3813,4.53021 -10.3939,5.73755 -9.5588,2.17055 -9.8557,42.09663 l -0.263,35.35746 -3.5,1.89516 c -2.4652,1.33483 -2.9152,1.41727 -1.5221,0.27882 z m 3.2853,-39.18637 c 0.2026,-25.36555 -0.028,-33.32656 -1,-34.55872 -1.9007,-2.40897 -55.67436,-32.99042 -56.79339,-32.29883 -1.97707,1.2219 -1.23206,64.93897 0.78015,66.72261 3.24385,2.87539 54.74024,33.74124 55.75004,33.4154 0.6328,-0.20419 1.0967,-12.42539 1.2632,-33.28046 z m -89.62999,14.83869 27.36675,-15.78512 0.5,-34.66526 c 0.30541,-21.17449 0.88917,-35.01951 1.5,-35.57553 0.55,-0.50064 13.6,-8.23145 29,-17.17957 15.40004,-8.94812 28.56254,-16.97183 29.25004,-17.83048 0.9436,-1.17851 1.25,-9.70795 1.25,-34.79861 0,-26.27823 0.2777,-33.51412 1.3263,-34.55887 0.7294,-0.72679 13.5711,-8.47141 28.537,-17.21028 14.9659,-8.73887 27.0634,-16.33103 26.8833,-16.87148 -0.1802,-0.54044 -13.0219,-8.60914 -28.5371,-17.93044 l -28.2095,-16.94782 v -35.88659 -35.8866 l -7.25,-4.22071 c -3.9875,-2.32139 -30.18098,-17.65353 -58.20769,-34.07142 -28.02671,-16.41788 -51.53921,-29.62754 -52.25,-29.35478 -1.39387,0.53488 -2.01664,412.50107 -0.62568,413.89202 1.17165,1.17165 1.64851,0.92699 29.46658,-15.11846 z M 394.63482,510.05906 c -0.347,-27.16625 -0.6789,-33.25685 -1.8746,-34.39773 -2.2219,-2.12014 -52.9746,-31.59089 -54.4039,-31.59089 -1.6259,0 -3.2581,61.91051 -1.7053,64.68522 1.0648,1.90268 54.7276,34.12375 57.0309,34.24338 1.1479,0.0596 1.3051,-5.37333 0.9529,-32.93998 z m -546.32754,72.95839 c -64.35,-37.33139 -117.76504,-67.8914 -118.7001,-67.91113 -1.36653,-0.0288 -1.77089,1.09228 -2.06091,5.71412 l -0.36082,5.75 -0.18909,-6.31574 c -0.10399,-3.47366 -0.62842,-7.13665 -1.16538,-8.13998 -0.82163,-1.53522 -0.53523,-1.88897 1.80776,-2.23285 2.2294,-0.32721 2.77256,-0.0283 2.7263,1.50028 -0.0595,1.96678 2.75325,3.62644 174.29978,102.8452 47.14218,27.26601 60.65447,34.66305 61.71369,33.78397 0.9102,-0.75539 1.46427,-4.13696 1.68492,-10.28319 l 0.32877,-9.15769 0.20754,11.25 c 0.18736,10.156 0.0374,11.24136 -1.54246,11.16113 -0.9625,-0.0489 -54.4,-30.63274 -118.75,-67.96412 z m 120.88854,21.55299 c 0.002,-7.15 0.16103,-9.94379 0.35396,-6.20841 0.19293,3.73537 0.19149,9.58537 -0.003,13 -0.19468,3.41462 -0.35253,0.35841 -0.35078,-6.79159 z m -244.03913,-39.5 c 0,-4.675 0.17226,-6.5875 0.3828,-4.25 0.21053,2.3375 0.21053,6.1625 0,8.5 -0.21054,2.3375 -0.3828,0.425 -0.3828,-4.25 z m 629.65063,4.55136 c 0,-0.275 1.35,-1.19811 3,-2.05136 1.65,-0.85325 3,-1.32636 3,-1.05136 0,0.275 -1.35,1.19811 -3,2.05136 -1.65,0.85325 -3,1.32636 -3,1.05136 z m 7,-3.90502 c 0,-0.25943 5.0625,-3.27397 11.25,-6.69899 6.1875,-3.42501 11.5875,-6.41586 12,-6.64634 0.4125,-0.23047 0.75,-0.20678 0.75,0.0526 0,0.25943 -5.0625,3.27397 -11.25,6.69899 -6.1875,3.42501 -11.5875,6.41586 -12,6.64634 -0.4125,0.23047 -0.75,0.20678 -0.75,-0.0526 z m -635.65723,-24.14634 c 0.004,-4.4 0.17944,-6.07561 0.39069,-3.72357 0.21124,2.35204 0.20827,5.95204 -0.007,8 -0.21487,2.04796 -0.38771,0.12357 -0.38408,-4.27643 z m 303.65719,2 c 0,-0.275 0.225,-0.5 0.5,-0.5 0.275,0 0.5,0.225 0.5,0.5 0,0.275 -0.225,0.5 -0.5,0.5 -0.275,0 -0.5,-0.225 -0.5,-0.5 z m -245.25,-68.16228 c 0.6875,-0.27741 1.8125,-0.27741 2.5,0 0.6875,0.27741 0.125,0.50439 -1.25,0.50439 -1.375,0 -1.9375,-0.22698 -1.25,-0.50439 z M 429.80732,455.6218 c 0,-0.275 1.35,-1.19811 3,-2.05136 1.65,-0.85325 3,-1.32636 3,-1.05136 0,0.275 -1.35,1.19811 -3,2.05136 -1.65,0.85325 -3,1.32636 -3,1.05136 z m 7,-4 c 0,-0.275 1.35,-1.19811 3,-2.05136 1.65,-0.85325 3,-1.32636 3,-1.05136 0,0.275 -1.35,1.19811 -3,2.05136 -1.65,0.85325 -3,1.32636 -3,1.05136 z m 7,-4 c 0,-0.275 1.35,-1.19811 3,-2.05136 1.65,-0.85325 3,-1.32636 3,-1.05136 0,0.275 -1.35,1.19811 -3,2.05136 -1.65,0.85325 -3,1.32636 -3,1.05136 z m 7,-4 c 0,-0.275 1.35,-1.19811 3,-2.05136 1.65,-0.85325 3,-1.32636 3,-1.05136 0,0.275 -1.35,1.19811 -3,2.05136 -1.65,0.85325 -3,1.32636 -3,1.05136 z m -845.33337,-4.21803 c -1.07998,-1.07997 -0.77096,-2.07933 0.83333,-2.69496 1.02029,-0.39152 1.5,0.054 1.5,1.39301 0,1.96505 -1.07205,2.56323 -2.33333,1.30195 z m 179.79221,-36.39986 c -0.92034,-1.48915 0.14673,-2.29879 2.06137,-1.56407 0.88358,0.33906 1.32643,1.06965 0.98412,1.62354 -0.81058,1.31154 -2.21511,1.28411 -3.04549,-0.0595 z M 30.80728,329.948 c 0,-1.76626 0.24988,-1.91507 1.48899,-0.8867 1.50499,1.24904 1.18445,3.00914 -0.54801,3.00914 -0.51754,0 -0.94098,-0.9551 -0.94098,-2.12244 z m 319.00004,-39.21508 c 0,-0.35162 15.7002,-9.5992 36.25,-21.35159 0.4125,-0.23591 0.75,-0.21859 0.75,0.0385 0,0.3438 -24.0286,14.49454 -36.25,21.34809 -0.4125,0.23132 -0.75,0.21558 -0.75,-0.035 z"
         id="path48"
         sodipodi:nodetypes="ssssscsscccssssssssssssscssccssccsssssssssssssscssscssssscssssscssssssscsssssssscssssssssssssssssssssssssssssssssssssssssscscssssssssssssscssssssssssscsssssssssscssssssssscccsssssssssssssscssssssscsssssssssssssssssssssssscscccsssssssssssssssssssssssssssssssssssssssssssssss" />
      <path
         style="fill:#080808"
         d="m 205.39282,1149.9882 c -2.13666,-1.1451 -48.48,-27.8551 -102.98519,-59.3555 -182.76347,-105.625 -542.67583,-313.59221 -584.60035,-337.79807 -22.825,-13.17842 -42.625,-25.05171 -44,-26.38511 l -2.5,-2.42434 -0.25999,-144.45041 -0.25999,-144.45041 2.75999,-2.94289 c 2.12406,-2.26482 230.26991,-134.95908 244.96033,-142.47391 6.33341,-3.23983 8.02891,-2.58856 37.39176,14.36288 15.24313,8.8 28.42413,16 29.2911,16 0.86697,0 41.72738,-23.175 90.80091,-51.5 76.81677,-44.33827 89.77596,-51.5 93.18949,-51.5 3.29954,0 8.61714,2.685 31.68781,16 15.2476,8.8 28.2692,16 28.93688,16 0.66768,0 41.43959,-23.22044 90.60423,-51.60098 85.05319,-49.09739 89.59664,-51.58284 93.64387,-51.22694 5.04375,0.44354 189.12205,107.04579 191.75365,111.04716 1.2349,1.87761 1.5884,8.44759 2,37.16902 l 0.5,34.88826 58.5,33.8101 c 41.9926,24.26963 58.9923,34.60066 60.2447,36.61174 1.649,2.64787 1.7451,18.43471 1.75,287.62856 l 0.01,284.82693 -2.75,2.71287 c -2.0473,2.01965 -261.73441,149.60034 -305.33309,173.52134 -7.59436,4.1668 -9.96919,4.4037 -15.33141,1.5297 z m 158.696,-94.5629 c 82.6202,-45.8947 150.9311,-84.21222 151.8021,-85.14993 2.1778,-2.34468 1.1669,-558.90355 -1.0232,-563.37401 -1.295,-2.64326 -5.4688,-5.17169 -94.8611,-57.46588 l -24.3006,-14.21581 -0.01,-33.82462 c -0.01,-30.11689 -0.1965,-34.14142 -1.7199,-36.71482 -1.7383,-2.93836 -174.85174,-105.29129 -179.89072,-106.36067 -2.02301,-0.42932 -178.21592,99.92606 -183.50746,104.52159 -1.55325,1.34894 -1.90966,1.29456 -3.5,-0.53396 -3.01863,-3.47071 -56.54982,-34.38538 -58.81843,-33.96809 -2.426,0.44625 -178.00922,103.12536 -181.01668,105.85654 -2.45471,2.2292 -3.43555,2.37006 -3.43555,0.49338 0,-1.59608 -56.09679,-34.63167 -58.7406,-34.59254 -3.70122,0.0548 -238.51085,136.60732 -240.10475,139.6319 -1.30278,2.47217 -1.55786,20.87875 -1.95992,141.42873 l -0.46221,138.58668 2.88374,2.00917 c 1.58606,1.10505 71.05874,41.33371 154.38374,89.39702 83.325,48.06331 245.1,141.43711 359.5,207.49732 157.11704,90.7271 208.80275,120.1233 211.28149,120.1663 2.53997,0.044 37.2263,-18.7992 153.50005,-83.3883 z m -29.9482,-404.02153 c 0.3667,-0.36666 0.9667,-0.36666 1.3334,0 0.3666,0.36667 0.067,0.66667 -0.6667,0.66667 -0.7333,0 -1.0333,-0.3 -0.6667,-0.66667 z M -30.19272,581.07044 c 0,-0.73333 0.3,-1.03333 0.66667,-0.66667 0.36666,0.36667 0.36666,0.96667 0,1.33334 -0.36667,0.36666 -0.66667,0.0667 -0.66667,-0.66667 z m 305,-35 c 0,-0.55 0.45,-1 1,-1 0.55,0 1,0.45 1,1 0,0.55 -0.45,1 -1,1 -0.55,0 -1,-0.45 -1,-1 z m 120.00004,-1 c 0,-0.73333 0.3,-1.03333 0.6667,-0.66667 0.3666,0.36667 0.3666,0.96667 0,1.33334 -0.3667,0.36666 -0.6667,0.0667 -0.6667,-0.66667 z m -668.00004,-33 c 0,-0.55 0.45,-1 1,-1 0.55,0 1,0.45 1,1 0,0.55 -0.45,1 -1,1 -0.55,0 -1,-0.45 -1,-1 z m 609.00004,-71 c 0,-0.55 0.45,-1 1,-1 0.55,0 1,0.45 1,1 0,0.55 -0.45,1 -1,1 -0.55,0 -1,-0.45 -1,-1 z m -1,-72 c 0,-0.55 0.45,-1 1,-1 0.55,0 1,0.45 1,1 0,0.55 -0.45,1 -1,1 -0.55,0 -1,-0.45 -1,-1 z m -121.00004,-140 c 0,-0.73333 0.3,-1.03333 0.66667,-0.66667 0.36666,0.36667 0.36666,0.96667 0,1.33334 -0.36667,0.36666 -0.66667,0.0667 -0.66667,-0.66667 z"
         id="path46"
         sodipodi:nodetypes="cssscccsssssssssssscssccssccsssscccssssssssscsssssssssssssssssssssssssssssssssssssssss" />
      <text
         id="text17"
         y="39.407299"
         x="-939.61475"
         style="font-style:normal;font-weight:normal;font-size:40px;line-height:1.25;font-family:sans-serif;fill:#000000;fill-opacity:1;stroke:none"
         xml:space="preserve"><tspan
           y="39.407299"
           x="-939.61475"
           id="tspan15"
           sodipodi:role="line"></tspan></text>
    </g>
    <text
       id="text43"
       y="311.5426"
       x="511.32324"
       style="font-style:normal;font-weight:normal;font-size:193.81px;line-height:1.25;font-family:sans-serif;fill:#000000;fill-opacity:1;stroke:none;stroke-width:2.01886"
       xml:space="preserve"><tspan
         style="font-style:normal;font-variant:normal;font-weight:300;font-stretch:normal;font-size:193.81px;font-family:'Open Sans';-inkscape-font-specification:'Open Sans Light';stroke-width:2.01886"
         y="311.5426"
         x="511.32324"
         id="tspan41"
         sodipodi:role="line">risset</tspan></text>
  </g>
</svg>
